<?xml version="1.0" encoding="utf-8"?>
<!-- Generator: Adobe Illustrator 24.0.1, SVG Export Plug-In . SVG Version: 6.00 Build 0)  -->
<svg version="1.1" id="Camada_1" xmlns="http://www.w3.org/2000/svg" xmlns:xlink="http://www.w3.org/1999/xlink" x="0px" y="0px"
	 viewBox="0 0 288 168.2" style="enable-background:new 0 0 288 168.2;" xml:space="preserve">
<style type="text/css">
	.st0{fill:#FFFFFF;}
</style>
<path class="st0" d="M216.9,85c0,33.5-22.2,62.2-54.3,70.2c-5.9,1.5-13.7,1.8-20.1,1.8c-5.4,0-14.4-0.6-19.9-1.9
	c-32.9-7.4-54.6-36-54.6-70.1c0-39.7,33.3-71.9,74.4-71.9S216.9,45.2,216.9,85z"/>
<path d="M166.5,154.1c0-7.7,0-15.2,0-22.8c0-3.2-0.5-6.3-1.5-9.3c-0.3-1-0.8-1.9-1.2-3c1.5-0.3,2.9-0.6,4.3-1c4.2-1,8.2-2.5,12-4.6
	c6.2-3.4,11.1-8.8,13.8-15.4c3.9-9.3,4.9-19.6,2.8-29.5c-1-4.6-3.1-8.9-6.1-12.6c-0.3-0.5-0.5-1-0.4-1.6c1.9-7.4,0.9-14.6-2.1-21.6
	c-0.2-0.4-0.6-0.7-1-0.8c-2.8-1-5.7-0.6-8.5,0.1c-5.2,1.5-10.2,3.7-14.7,6.8c-0.7,0.4-1.5,0.6-2.2,0.4c-12.1-2.9-24.7-2.9-36.8,0
	c-0.7,0.2-1.5,0.1-2.1-0.4c-4.9-3.1-10-5.8-15.8-7c-2.5-0.7-5.1-0.6-7.6,0.1c-0.5,0.2-0.9,0.5-1.1,1c-2.9,6.9-3.8,14.1-1.9,21.5
	c0.1,0.4,0,0.9-0.3,1.3c-6,7.6-7.9,16.3-7.2,25.8c0.3,5.1,1.3,10.1,3.1,15c4,10.3,11.7,16.8,22.1,20.2c2.5,0.8,5,1.3,7.5,2l1,0.2
	c-0.6,1.9-1.2,3.7-1.8,5.5c-0.2,0.4-0.5,0.6-0.9,0.8c-7.1,2.4-13,0.3-16.9-6.1c-3-4.8-7.1-8.2-12.7-9.6c-1.9-0.5-3.9-0.4-5.8,0.1
	c-3.5,1.1-4.6,4.5-2.3,7.3c0.8,1,1.8,1.9,2.9,2.6c3.5,2.1,6.1,5.4,7.5,9.2c3.8,9.2,11.1,13.2,20.7,13.7c2.2,0.1,4.4,0,6.7,0v12.1
	c-24.2-6.4-54.1-32.2-54.5-72.3C65,40,99.3,5.4,142,5.1c38.5-0.3,71.4,27.6,77,65.3C225,111.6,197.7,144.5,166.5,154.1z"/>
</svg>
