<svg id="Camada_1" data-name="Camada 1" xmlns="http://www.w3.org/2000/svg" viewBox="0 0 427.38 427.39"><defs><style>.cls-1{fill:#0a66c2;}.cls-2{fill:#fff;}</style></defs><title>1200x630wa</title><path class="cls-1" d="M92.38,395.92c0-36.49-.22-73,.11-109.48.13-14.8,1.35-29.66,6.88-43.64C113,208.38,138.48,189,175,184.4a309.92,309.92,0,0,1,37.33-1.93c67.82-.17,135.64-.3,203.46.06,20.58.11,40.88,3,58.94,14.24,24.73,15.39,39.1,37.68,42.8,66.46a287.8,287.8,0,0,1,2,35.84q.27,103.24,0,206.47c-.06,14.45-1.45,28.93-6.6,42.69-12,32.13-35.12,51.62-68.55,58.23-11.65,2.3-23.78,3-35.7,3q-106,.39-212,0c-14.44-.06-28.92-1.44-42.7-6.56-32.13-11.93-51.8-34.83-58.48-68.3-2.23-11.17-2.88-22.79-3-34.22C92.14,465.58,92.38,430.75,92.38,395.92ZM318.29,371c0-7-.18-13,.07-18.95.16-3.83-1-5.33-5-5.28q-22.74.25-45.49,0c-3.93,0-5.15,1.31-5.14,5.21q.15,86.47,0,173c0,4.2,1.39,5.41,5.46,5.36,14.66-.2,29.33,0,44-.1,8.57-.06,8.81,1.95,8.82-9,.05-31.65.07-63.31.25-95a34.93,34.93,0,0,1,8.05-22.62c8.51-10.24,19.59-13.37,32.33-10.54,12.1,2.69,17.18,11.67,19.24,22.9a61.35,61.35,0,0,1,1,10.9c.13,32.32.23,64.65.1,97,0,5,1.41,6.59,6.54,6.48,15.33-.35,30.66-.31,46,0,4.75.09,5.86-1.57,5.84-6-.16-32.82,0-65.65-.13-98.47a213.88,213.88,0,0,0-1-24.43c-2.38-19.8-10.15-36.91-27.16-48.53C384.86,334.33,341.81,337.13,318.29,371ZM171.76,438.48c0,28.81.07,57.61-.08,86.42,0,4.13,1.26,5.47,5.41,5.42,15.65-.2,31.31-.25,46.95,0,4.71.08,6-1.55,6-6q-.15-85.94,0-171.85c0-4.34-1.4-5.79-5.78-5.73-15.48.22-31,.26-46.46,0-4.91-.09-6.15,1.59-6.12,6.3C171.85,381.53,171.76,410,171.76,438.48Zm28.57-115.25c18.92,0,33.76-14.37,33.78-32.76s-14.66-32.79-33.64-32.8-33.7,14.13-33.72,32.66S181.4,323.21,200.33,323.23Z" transform="translate(-92.31 -182.3)"/><path class="cls-2" d="M318.29,371c23.52-33.89,66.57-36.69,93.75-18.13,17,11.62,24.78,28.73,27.16,48.53a213.88,213.88,0,0,1,1,24.43c.1,32.82,0,65.65.13,98.47,0,4.46-1.09,6.12-5.84,6-15.33-.29-30.66-.33-46,0-5.13.11-6.56-1.5-6.54-6.48.13-32.32,0-64.65-.1-97a61.35,61.35,0,0,0-1-10.9c-2.06-11.23-7.14-20.21-19.24-22.9-12.74-2.83-23.82.3-32.33,10.54a34.93,34.93,0,0,0-8.05,22.62c-.18,31.66-.2,63.32-.25,95,0,10.92-.25,8.91-8.82,9-14.66.09-29.33-.1-44,.1-4.07,0-5.47-1.16-5.46-5.36q.17-86.48,0-173c0-3.9,1.21-5.25,5.14-5.21q22.74.25,45.49,0c4-.05,5.2,1.45,5,5.28C318.11,358,318.29,364,318.29,371Z" transform="translate(-92.31 -182.3)"/><path class="cls-2" d="M171.76,438.48c0-28.48.09-57-.1-85.43,0-4.71,1.21-6.39,6.12-6.3,15.49.28,31,.24,46.46,0,4.38-.06,5.78,1.39,5.78,5.73q-.15,85.92,0,171.85c0,4.45-1.27,6.08-6,6-15.64-.28-31.3-.23-46.95,0-4.15,0-5.43-1.29-5.41-5.42C171.83,496.09,171.76,467.29,171.76,438.48Z" transform="translate(-92.31 -182.3)"/><path class="cls-2" d="M200.33,323.23c-18.93,0-33.6-14.39-33.58-32.9s14.62-32.67,33.72-32.66,33.67,14.33,33.64,32.8S219.25,323.24,200.33,323.23Z" transform="translate(-92.31 -182.3)"/></svg>